# xmcd
#
# Track frame offsets:
#	150
#	17517
#	34680
#	52360
#	72887
#	94170
#	107601
#	123587
#	141058
#	157210
#	177136
#	191780
#
# Disc length: 2732 seconds
#
# Revision: 1
# Processed by: cddbd v1.5.2PL0 Copyright (c) Steve Scherf et al.
# Submitted via: EasyCDDAExtractor 10.0.6.1
#
DISCID=aa0aaa0c
DTITLE=Serj Tankian - Elect the Dead
DYEAR=2006
DGENRE=Rock and Roll
TTITLE0=Empty Walls
TTITLE1=The Unthinking Majority
TTITLE2=Money
TTITLE3=Feed Us
TTITLE4=Saving Us
TTITLE5=Sky Is Over
TTITLE6=Baby
TTITLE7=Honking Antelope
TTITLE8=Lie Lie Lie
TTITLE9=Praise the Lord and Pass the Ammunition
TTITLE10=Beethoven's C***
TTITLE11=Elect the Dead
EXTD=
EXTT0=
EXTT1=
EXTT2=
EXTT3=
EXTT4=
EXTT5=
EXTT6=
EXTT7=
EXTT8=
EXTT9=
EXTT10=
EXTT11=
PLAYORDER=
